<svg width="15" height="18" viewBox="0 0 15 18" fill="none" xmlns="http://www.w3.org/2000/svg">
<path d="M0.333496 2.74984V15.2498C0.333496 15.8024 0.55299 16.3323 0.94369 16.723C1.33439 17.1137 1.8643 17.3332 2.41683 17.3332H13.4585C13.6243 17.3332 13.7832 17.2673 13.9004 17.1501C14.0176 17.0329 14.0835 16.8739 14.0835 16.7082C14.0835 16.5424 14.0176 16.3834 13.9004 16.2662C13.7832 16.149 13.6243 16.0832 13.4585 16.0832H2.41683C2.19582 16.0832 1.98385 15.9954 1.82757 15.8391C1.67129 15.6828 1.5835 15.4709 1.5835 15.2498H13.4585C13.6243 15.2498 13.7832 15.184 13.9004 15.0668C14.0176 14.9496 14.0835 14.7906 14.0835 14.6248V2.74984C14.0835 2.47625 14.0296 2.20534 13.9249 1.95258C13.8202 1.69982 13.6668 1.47015 13.4733 1.2767C13.2798 1.08324 13.0502 0.929786 12.7974 0.825088C12.5447 0.720391 12.2738 0.666504 12.0002 0.666504H2.41683C1.8643 0.666504 1.33439 0.885997 0.94369 1.2767C0.55299 1.6674 0.333496 2.1973 0.333496 2.74984ZM6.5835 8.7915V4.62484C6.5835 4.45908 6.64934 4.30011 6.76655 4.1829C6.88377 4.06569 7.04274 3.99984 7.2085 3.99984C7.37426 3.99984 7.53323 4.06569 7.65044 4.1829C7.76765 4.30011 7.8335 4.45908 7.8335 4.62484V8.7915C7.8335 8.95726 7.76765 9.11624 7.65044 9.23345C7.53323 9.35066 7.37426 9.4165 7.2085 9.4165C7.04274 9.4165 6.88377 9.35066 6.76655 9.23345C6.64934 9.11624 6.5835 8.95726 6.5835 8.7915ZM8.04183 11.0832C8.04183 11.3042 7.95403 11.5161 7.79775 11.6724C7.64147 11.8287 7.42951 11.9165 7.2085 11.9165C6.98748 11.9165 6.77552 11.8287 6.61924 11.6724C6.46296 11.5161 6.37516 11.3042 6.37516 11.0832C6.37516 10.8622 6.46296 10.6502 6.61924 10.4939C6.77552 10.3376 6.98748 10.2498 7.2085 10.2498C7.42951 10.2498 7.64147 10.3376 7.79775 10.4939C7.95403 10.6502 8.04183 10.8622 8.04183 11.0832Z" fill="#E8DC00"/>
</svg>
