<svg width="14" height="18" viewBox="0 0 14 18" fill="none" xmlns="http://www.w3.org/2000/svg">
<path d="M7.00016 0.666504C7.88422 0.666504 8.73206 1.01769 9.35719 1.64281C9.98231 2.26794 10.3335 3.11578 10.3335 3.99984V5.6665H12.4168C12.7484 5.6665 13.0663 5.7982 13.3007 6.03262C13.5351 6.26704 13.6668 6.58498 13.6668 6.9165V16.0832C13.6668 16.4147 13.5351 16.7326 13.3007 16.9671C13.0663 17.2015 12.7484 17.3332 12.4168 17.3332H1.5835C1.25198 17.3332 0.934033 17.2015 0.699612 16.9671C0.465192 16.7326 0.333496 16.4147 0.333496 16.0832V6.9165C0.333496 6.58498 0.465192 6.26704 0.699612 6.03262C0.934033 5.7982 1.25198 5.6665 1.5835 5.6665H3.66683V3.99984C3.66683 3.11578 4.01802 2.26794 4.64314 1.64281C5.26826 1.01769 6.11611 0.666504 7.00016 0.666504ZM7.00016 10.2498C6.66864 10.2498 6.3507 10.3815 6.11628 10.616C5.88186 10.8504 5.75016 11.1683 5.75016 11.4998C5.75016 11.8314 5.88186 12.1493 6.11628 12.3837C6.3507 12.6181 6.66864 12.7498 7.00016 12.7498C7.33168 12.7498 7.64963 12.6181 7.88405 12.3837C8.11847 12.1493 8.25016 11.8314 8.25016 11.4998C8.25016 11.1683 8.11847 10.8504 7.88405 10.616C7.64963 10.3815 7.33168 10.2498 7.00016 10.2498ZM7.00016 2.33317C6.55814 2.33317 6.13421 2.50877 5.82165 2.82133C5.50909 3.13389 5.3335 3.55781 5.3335 3.99984V5.6665H8.66683V3.99984C8.66683 3.55781 8.49123 3.13389 8.17867 2.82133C7.86611 2.50877 7.44219 2.33317 7.00016 2.33317Z" fill="#E8DC00"/>
</svg>
