<svg width="20" height="20" viewBox="0 0 20 20" fill="none" xmlns="http://www.w3.org/2000/svg">
<path d="M10.0002 7.50418C10.8842 7.50418 11.7321 7.85537 12.3572 8.48049C12.9823 9.10561 13.3335 9.95346 13.3335 10.8375C13.3335 11.7216 12.9823 12.5694 12.3572 13.1945C11.7321 13.8197 10.8842 14.1708 10.0002 14.1708C9.1161 14.1708 8.26825 13.8197 7.64313 13.1945C7.01801 12.5694 6.66682 11.7216 6.66682 10.8375C6.66682 9.95346 7.01801 9.10561 7.64313 8.48049C8.26825 7.85537 9.1161 7.50418 10.0002 7.50418ZM10.0002 4.58334C13.8443 4.58334 17.1635 7.20834 18.0843 10.8867C18.1247 11.0475 18.0995 11.2177 18.0143 11.3599C17.9291 11.5021 17.7909 11.6047 17.6302 11.645C17.4694 11.6853 17.2991 11.6602 17.1569 11.575C17.0147 11.4898 16.9122 11.3516 16.8718 11.1908C16.4866 9.65985 15.6012 8.30134 14.356 7.33088C13.1108 6.36041 11.5771 5.83358 9.99843 5.83396C8.41973 5.83434 6.88636 6.36192 5.64163 7.33299C4.39691 8.30406 3.51212 9.663 3.12765 11.1942C3.08448 11.3516 2.98141 11.4859 2.8405 11.5684C2.69959 11.6508 2.53201 11.6748 2.37361 11.6353C2.21521 11.5958 2.07856 11.4959 1.99289 11.3569C1.90721 11.2179 1.87931 11.0509 1.91515 10.8917C2.36705 9.08956 3.40803 7.49006 4.87282 6.34715C6.33761 5.20425 8.14224 4.58346 10.0002 4.58334Z" fill="#9E9FA2"/>
</svg>
