<svg width="18" height="18" viewBox="0 0 18 18" fill="none" xmlns="http://www.w3.org/2000/svg">
<path d="M9.00004 0.666016C13.6034 0.666016 17.335 4.39768 17.335 9.00102C17.335 13.6035 13.6034 17.3352 9.00004 17.3352C4.39671 17.3352 0.665039 13.6035 0.665039 9.00102C0.665039 4.39768 4.39671 0.666016 9.00004 0.666016ZM8.99671 7.54102C8.79248 7.5413 8.59547 7.61656 8.44308 7.75251C8.29069 7.88847 8.19352 8.07565 8.17004 8.27852L8.16421 8.37518L8.16671 12.9602L8.17254 13.0577C8.19603 13.2609 8.29347 13.4484 8.44628 13.5844C8.5991 13.7205 8.79661 13.7955 9.0012 13.7953C9.20579 13.7951 9.40315 13.7197 9.55569 13.5833C9.70823 13.447 9.80529 13.2593 9.82837 13.056L9.83337 12.9585L9.83087 8.37435L9.82504 8.27685C9.80095 8.07415 9.7033 7.88734 9.55062 7.75186C9.39793 7.61638 9.20083 7.54165 8.99671 7.54185V7.54102ZM9.00004 4.41685C8.72344 4.41685 8.45817 4.52673 8.26259 4.72231C8.067 4.9179 7.95712 5.18317 7.95712 5.45977C7.95712 5.73636 8.067 6.00163 8.26259 6.19722C8.45817 6.3928 8.72344 6.50268 9.00004 6.50268C9.27664 6.50268 9.54191 6.3928 9.73749 6.19722C9.93308 6.00163 10.043 5.73636 10.043 5.45977C10.043 5.18317 9.93308 4.9179 9.73749 4.72231C9.54191 4.52673 9.27664 4.41685 9.00004 4.41685Z" fill="#E8DC00"/>
</svg>
