<svg width="20" height="24" viewBox="0 0 20 24" fill="none" xmlns="http://www.w3.org/2000/svg">
<path d="M10.625 9.9C10.625 9.66131 10.7238 9.43239 10.8996 9.2636C11.0754 9.09482 11.3139 9 11.5625 9H15.9375C16.1861 9 16.4246 9.09482 16.6004 9.2636C16.7762 9.43239 16.875 9.66131 16.875 9.9C16.875 10.1387 16.7762 10.3676 16.6004 10.5364C16.4246 10.7052 16.1861 10.8 15.9375 10.8H11.5625C11.3139 10.8 11.0754 10.7052 10.8996 10.5364C10.7238 10.3676 10.625 10.1387 10.625 9.9ZM11.5625 15.6C11.3139 15.6 11.0754 15.6948 10.8996 15.8636C10.7238 16.0324 10.625 16.2613 10.625 16.5C10.625 16.7387 10.7238 16.9676 10.8996 17.1364C11.0754 17.3052 11.3139 17.4 11.5625 17.4H15.9375C16.1861 17.4 16.4246 17.3052 16.6004 17.1364C16.7762 16.9676 16.875 16.7387 16.875 16.5C16.875 16.2613 16.7762 16.0324 16.6004 15.8636C16.4246 15.6948 16.1861 15.6 15.9375 15.6H11.5625ZM8.475 9.336C8.56711 9.25361 8.64099 9.15425 8.69223 9.04385C8.74347 8.93345 8.77102 8.81427 8.77324 8.69343C8.77546 8.57258 8.7523 8.45255 8.70515 8.34048C8.658 8.22842 8.58782 8.12662 8.4988 8.04115C8.40977 7.95569 8.30373 7.88832 8.187 7.84305C8.07026 7.79779 7.94523 7.77556 7.81935 7.77769C7.69347 7.77982 7.56933 7.80627 7.45433 7.85546C7.33933 7.90465 7.23583 7.97558 7.15 8.064L5.3125 9.828L4.725 9.264C4.54728 9.10502 4.31222 9.01848 4.06935 9.02259C3.82647 9.0267 3.59474 9.12116 3.42297 9.28605C3.25121 9.45095 3.15282 9.67341 3.14853 9.90657C3.14425 10.1397 3.2344 10.3654 3.4 10.536L4.65 11.736C4.82578 11.9045 5.06406 11.9992 5.3125 11.9992C5.56094 11.9992 5.79922 11.9045 5.975 11.736L8.475 9.336ZM8.475 14.664C8.65056 14.8328 8.74918 15.0615 8.74918 15.3C8.74918 15.5385 8.65056 15.7672 8.475 15.936L5.975 18.336C5.79922 18.5045 5.56094 18.5992 5.3125 18.5992C5.06406 18.5992 4.82578 18.5045 4.65 18.336L3.4 17.136C3.30789 17.0536 3.23401 16.9542 3.18277 16.8438C3.13153 16.7334 3.10398 16.6143 3.10176 16.4934C3.09954 16.3726 3.1227 16.2525 3.16985 16.1405C3.217 16.0284 3.28718 15.9266 3.3762 15.8412C3.46523 15.7557 3.57127 15.6883 3.688 15.6431C3.80474 15.5978 3.92977 15.5756 4.05565 15.5777C4.18153 15.5798 4.30567 15.6063 4.42067 15.6555C4.53567 15.7047 4.63917 15.7756 4.725 15.864L5.3125 16.428L7.15 14.664C7.32578 14.4955 7.56406 14.4008 7.8125 14.4008C8.06094 14.4008 8.29922 14.4955 8.475 14.664ZM14.9925 2.5008C14.9401 1.82103 14.6218 1.18543 14.1016 0.721583C13.5813 0.257734 12.8975 -3.99573e-05 12.1875 4.64569e-09H7.8125C7.1207 2.00694e-05 6.45318 0.244808 5.93755 0.687566C5.42193 1.13032 5.09437 1.73999 5.0175 2.4H2.8125C2.06658 2.4 1.35121 2.68446 0.823762 3.19081C0.296316 3.69716 0 4.38392 0 5.1V21.3C0 22.0161 0.296316 22.7028 0.823762 23.2092C1.35121 23.7155 2.06658 24 2.8125 24H17.1875C17.5568 24 17.9226 23.9302 18.2638 23.7945C18.605 23.6588 18.9151 23.4599 19.1762 23.2092C19.4374 22.9585 19.6446 22.6608 19.7859 22.3332C19.9273 22.0057 20 21.6546 20 21.3V5.1C20 4.74543 19.9273 4.39433 19.7859 4.06675C19.6446 3.73918 19.4374 3.44153 19.1762 3.19081C18.9151 2.94009 18.605 2.74121 18.2638 2.60553C17.9226 2.46984 17.5568 2.4 17.1875 2.4H14.9825L14.9925 2.5008ZM14.9925 2.5152L15 2.7C15 2.6376 14.9963 2.5764 14.9925 2.5152ZM7.8125 5.4H12.1875C13.1625 5.4 14.0213 4.9236 14.5263 4.2H17.1875C17.4361 4.2 17.6746 4.29482 17.8504 4.4636C18.0262 4.63239 18.125 4.86131 18.125 5.1V21.3C18.125 21.5387 18.0262 21.7676 17.8504 21.9364C17.6746 22.1052 17.4361 22.2 17.1875 22.2H2.8125C2.56386 22.2 2.3254 22.1052 2.14959 21.9364C1.97377 21.7676 1.875 21.5387 1.875 21.3V5.1C1.875 4.86131 1.97377 4.63239 2.14959 4.4636C2.3254 4.29482 2.56386 4.2 2.8125 4.2H5.47375C5.97875 4.9236 6.8375 5.4 7.8125 5.4ZM7.8125 1.8H12.1875C12.4361 1.8 12.6746 1.89482 12.8504 2.0636C13.0262 2.23239 13.125 2.46131 13.125 2.7C13.125 2.93869 13.0262 3.16761 12.8504 3.3364C12.6746 3.50518 12.4361 3.6 12.1875 3.6H7.8125C7.56386 3.6 7.3254 3.50518 7.14959 3.3364C6.97377 3.16761 6.875 2.93869 6.875 2.7C6.875 2.46131 6.97377 2.23239 7.14959 2.0636C7.3254 1.89482 7.56386 1.8 7.8125 1.8Z" fill="#212121"/>
</svg>
