<svg width="14" height="14" viewBox="0 0 14 14" fill="none" xmlns="http://www.w3.org/2000/svg">
<path d="M13.5067 9.61334L9.23998 1.93334C8.66665 0.900003 7.87332 0.333336 6.99998 0.333336C6.12665 0.333336 5.33332 0.900003 4.75998 1.93334L0.493318 9.61334C-0.0466816 10.5933 -0.106682 11.5333 0.326652 12.2733C0.759985 13.0133 1.61332 13.42 2.73332 13.42H11.2667C12.3867 13.42 13.24 13.0133 13.6733 12.2733C14.1067 11.5333 14.0467 10.5867 13.5067 9.61334ZM6.49998 5C6.49998 4.72667 6.72665 4.5 6.99998 4.5C7.27332 4.5 7.49998 4.72667 7.49998 5V8.33334C7.49998 8.60667 7.27332 8.83334 6.99998 8.83334C6.72665 8.83334 6.49998 8.60667 6.49998 8.33334V5ZM7.47332 10.8067C7.43998 10.8333 7.40665 10.86 7.37332 10.8867C7.33332 10.9133 7.29332 10.9333 7.25332 10.9467C7.21332 10.9667 7.17332 10.98 7.12665 10.9867C7.08665 10.9933 7.03998 11 6.99998 11C6.95998 11 6.91332 10.9933 6.86665 10.9867C6.82665 10.98 6.78665 10.9667 6.74665 10.9467C6.70665 10.9333 6.66665 10.9133 6.62665 10.8867C6.59332 10.86 6.55998 10.8333 6.52665 10.8067C6.40665 10.68 6.33332 10.5067 6.33332 10.3333C6.33332 10.16 6.40665 9.98667 6.52665 9.86C6.55998 9.83334 6.59332 9.80667 6.62665 9.78C6.66665 9.75334 6.70665 9.73334 6.74665 9.72C6.78665 9.7 6.82665 9.68667 6.86665 9.68C6.95332 9.66 7.04665 9.66 7.12665 9.68C7.17332 9.68667 7.21332 9.7 7.25332 9.72C7.29332 9.73334 7.33332 9.75334 7.37332 9.78C7.40665 9.80667 7.43998 9.83334 7.47332 9.86C7.59332 9.98667 7.66665 10.16 7.66665 10.3333C7.66665 10.5067 7.59332 10.68 7.47332 10.8067Z" fill="#F04438"/>
</svg>
