<svg width="18" height="16" viewBox="0 0 18 16" fill="none" xmlns="http://www.w3.org/2000/svg">
<path d="M10.2673 0.209378C9.96736 -0.076309 9.49262 -0.0647656 9.20694 0.235161C8.92125 0.535087 8.93279 1.00982 9.23272 1.29551L15.4841 7.25012H0.75C0.335787 7.25012 0 7.58591 0 8.00012C0 8.41434 0.335787 8.75012 0.75 8.75012H15.4842L9.23272 14.7048C8.93279 14.9905 8.92125 15.4652 9.20694 15.7652C9.49262 16.0651 9.96736 16.0766 10.2673 15.791L17.6862 8.72425C17.8551 8.56335 17.9551 8.35812 17.9861 8.14475C17.9952 8.09795 18 8.0496 18 8.00012C18 7.95055 17.9952 7.9021 17.986 7.85522C17.955 7.64199 17.855 7.43689 17.6862 7.27608L10.2673 0.209378Z" fill="#3D4454"/>
</svg>
