<svg width="14" height="14" viewBox="0 0 14 14" fill="none" xmlns="http://www.w3.org/2000/svg">
<path d="M13.75 4.375V11.3125C13.75 11.959 13.4932 12.579 13.0361 13.0361C12.579 13.4932 11.959 13.75 11.3125 13.75H2.6875C2.04103 13.75 1.42105 13.4932 0.963927 13.0361C0.506807 12.579 0.25 11.959 0.25 11.3125V4.375H13.75ZM3.4375 9.25C3.18886 9.25 2.9504 9.34877 2.77459 9.52459C2.59877 9.7004 2.5 9.93886 2.5 10.1875C2.5 10.4361 2.59877 10.6746 2.77459 10.8504C2.9504 11.0262 3.18886 11.125 3.4375 11.125C3.68614 11.125 3.9246 11.0262 4.10041 10.8504C4.27623 10.6746 4.375 10.4361 4.375 10.1875C4.375 9.93886 4.27623 9.7004 4.10041 9.52459C3.9246 9.34877 3.68614 9.25 3.4375 9.25ZM7 9.25C6.75136 9.25 6.5129 9.34877 6.33709 9.52459C6.16127 9.7004 6.0625 9.93886 6.0625 10.1875C6.0625 10.4361 6.16127 10.6746 6.33709 10.8504C6.5129 11.0262 6.75136 11.125 7 11.125C7.24864 11.125 7.4871 11.0262 7.66291 10.8504C7.83873 10.6746 7.9375 10.4361 7.9375 10.1875C7.9375 9.93886 7.83873 9.7004 7.66291 9.52459C7.4871 9.34877 7.24864 9.25 7 9.25ZM3.4375 5.875C3.18886 5.875 2.9504 5.97377 2.77459 6.14959C2.59877 6.3254 2.5 6.56386 2.5 6.8125C2.5 7.06114 2.59877 7.2996 2.77459 7.47541C2.9504 7.65123 3.18886 7.75 3.4375 7.75C3.68614 7.75 3.9246 7.65123 4.10041 7.47541C4.27623 7.2996 4.375 7.06114 4.375 6.8125C4.375 6.56386 4.27623 6.3254 4.10041 6.14959C3.9246 5.97377 3.68614 5.875 3.4375 5.875ZM7 5.875C6.75136 5.875 6.5129 5.97377 6.33709 6.14959C6.16127 6.3254 6.0625 6.56386 6.0625 6.8125C6.0625 7.06114 6.16127 7.2996 6.33709 7.47541C6.5129 7.65123 6.75136 7.75 7 7.75C7.24864 7.75 7.4871 7.65123 7.66291 7.47541C7.83873 7.2996 7.9375 7.06114 7.9375 6.8125C7.9375 6.56386 7.83873 6.3254 7.66291 6.14959C7.4871 5.97377 7.24864 5.875 7 5.875ZM10.5625 5.875C10.3139 5.875 10.0754 5.97377 9.89959 6.14959C9.72377 6.3254 9.625 6.56386 9.625 6.8125C9.625 7.06114 9.72377 7.2996 9.89959 7.47541C10.0754 7.65123 10.3139 7.75 10.5625 7.75C10.8111 7.75 11.0496 7.65123 11.2254 7.47541C11.4012 7.2996 11.5 7.06114 11.5 6.8125C11.5 6.56386 11.4012 6.3254 11.2254 6.14959C11.0496 5.97377 10.8111 5.875 10.5625 5.875ZM11.3125 0.25C11.959 0.25 12.579 0.506807 13.0361 0.963927C13.4932 1.42105 13.75 2.04103 13.75 2.6875V3.25H0.25V2.6875C0.25 2.04103 0.506807 1.42105 0.963927 0.963927C1.42105 0.506807 2.04103 0.25 2.6875 0.25H11.3125Z" fill="#E8DC00"/>
</svg>
