<svg width="12" height="12" viewBox="0 0 12 12" fill="none" xmlns="http://www.w3.org/2000/svg">
<path d="M12 3.66667V9.83333C12 10.408 11.7717 10.9591 11.3654 11.3654C10.9591 11.7717 10.408 12 9.83333 12H2.16667C1.59203 12 1.04093 11.7717 0.634602 11.3654C0.228273 10.9591 0 10.408 0 9.83333V3.66667H12ZM2.83333 8C2.61232 8 2.40036 8.0878 2.24408 8.24408C2.0878 8.40036 2 8.61232 2 8.83333C2 9.05435 2.0878 9.26631 2.24408 9.42259C2.40036 9.57887 2.61232 9.66667 2.83333 9.66667C3.05435 9.66667 3.26631 9.57887 3.42259 9.42259C3.57887 9.26631 3.66667 9.05435 3.66667 8.83333C3.66667 8.61232 3.57887 8.40036 3.42259 8.24408C3.26631 8.0878 3.05435 8 2.83333 8ZM6 8C5.77899 8 5.56702 8.0878 5.41074 8.24408C5.25446 8.40036 5.16667 8.61232 5.16667 8.83333C5.16667 9.05435 5.25446 9.26631 5.41074 9.42259C5.56702 9.57887 5.77899 9.66667 6 9.66667C6.22101 9.66667 6.43298 9.57887 6.58926 9.42259C6.74554 9.26631 6.83333 9.05435 6.83333 8.83333C6.83333 8.61232 6.74554 8.40036 6.58926 8.24408C6.43298 8.0878 6.22101 8 6 8ZM2.83333 5C2.61232 5 2.40036 5.0878 2.24408 5.24408C2.0878 5.40036 2 5.61232 2 5.83333C2 6.05435 2.0878 6.26631 2.24408 6.42259C2.40036 6.57887 2.61232 6.66667 2.83333 6.66667C3.05435 6.66667 3.26631 6.57887 3.42259 6.42259C3.57887 6.26631 3.66667 6.05435 3.66667 5.83333C3.66667 5.61232 3.57887 5.40036 3.42259 5.24408C3.26631 5.0878 3.05435 5 2.83333 5ZM6 5C5.77899 5 5.56702 5.0878 5.41074 5.24408C5.25446 5.40036 5.16667 5.61232 5.16667 5.83333C5.16667 6.05435 5.25446 6.26631 5.41074 6.42259C5.56702 6.57887 5.77899 6.66667 6 6.66667C6.22101 6.66667 6.43298 6.57887 6.58926 6.42259C6.74554 6.26631 6.83333 6.05435 6.83333 5.83333C6.83333 5.61232 6.74554 5.40036 6.58926 5.24408C6.43298 5.0878 6.22101 5 6 5ZM9.16667 5C8.94565 5 8.73369 5.0878 8.57741 5.24408C8.42113 5.40036 8.33333 5.61232 8.33333 5.83333C8.33333 6.05435 8.42113 6.26631 8.57741 6.42259C8.73369 6.57887 8.94565 6.66667 9.16667 6.66667C9.38768 6.66667 9.59964 6.57887 9.75592 6.42259C9.9122 6.26631 10 6.05435 10 5.83333C10 5.61232 9.9122 5.40036 9.75592 5.24408C9.59964 5.0878 9.38768 5 9.16667 5ZM9.83333 0C10.408 0 10.9591 0.228273 11.3654 0.634602C11.7717 1.04093 12 1.59203 12 2.16667V2.66667H0V2.16667C0 1.59203 0.228273 1.04093 0.634602 0.634602C1.04093 0.228273 1.59203 0 2.16667 0H9.83333Z" fill="#38393A"/>
</svg>
