<svg width="73" height="72" viewBox="0 0 73 72" fill="none" xmlns="http://www.w3.org/2000/svg">
<rect x="0.5" width="72" height="72" rx="36" fill="#FFFBB0"/>
<path d="M51.5002 28.5184C52.267 29.0078 52.898 29.6827 53.335 30.4806C53.772 31.2785 54.0007 32.1736 54.0002 33.0834V43.0834C54.0002 47.9167 50.0835 51.8334 45.2502 51.8334H30.2502C29.3405 51.8339 28.4453 51.6052 27.6474 51.1682C26.8495 50.7312 26.1746 50.1002 25.6852 49.3334H45.2502C46.9078 49.3334 48.4975 48.6749 49.6696 47.5028C50.8417 46.3307 51.5002 44.741 51.5002 43.0834V28.5184ZM49.8335 29.5167V42.25C49.8336 43.6336 49.3042 44.9647 48.354 45.9704C47.4038 46.9761 46.1048 47.58 44.7235 47.6584L44.4168 47.6667H25.2502C23.8666 47.6668 22.5354 47.1374 21.5298 46.1872C20.5241 45.237 19.9202 43.938 19.8418 42.5567L19.8335 42.25V29.5167L34.2502 37.1067C34.43 37.2016 34.6302 37.2511 34.8335 37.2511C35.0368 37.2511 35.237 37.2016 35.4168 37.1067L49.8335 29.5167ZM25.2502 22.6667H44.4168C45.6263 22.6666 46.801 23.0712 47.7539 23.816C48.7068 24.5608 49.3831 25.603 49.6752 26.7767L34.8335 34.5867L19.9918 26.7767C20.2712 25.6556 20.9016 24.6532 21.7908 23.9157C22.6801 23.1781 23.7818 22.744 24.9352 22.6767L25.2502 22.6667Z" fill="#E8DC00"/>
</svg>
