<svg width="12" height="7" viewBox="0 0 12 7" fill="none" xmlns="http://www.w3.org/2000/svg">
<path d="M6.00001 2.25296C6.61885 2.25296 7.21234 2.49879 7.64992 2.93637C8.08751 3.37396 8.33334 3.96745 8.33334 4.58629C8.33334 5.20513 8.08751 5.79862 7.64992 6.23621C7.21234 6.67379 6.61885 6.91962 6.00001 6.91962C5.38117 6.91962 4.78768 6.67379 4.35009 6.23621C3.91251 5.79862 3.66668 5.20513 3.66668 4.58629C3.66668 3.96745 3.91251 3.37396 4.35009 2.93637C4.78768 2.49879 5.38117 2.25296 6.00001 2.25296ZM6.00001 0.208374C8.69092 0.208374 11.0143 2.04587 11.6589 4.62071C11.6872 4.73326 11.6695 4.85242 11.6099 4.95197C11.5503 5.05152 11.4536 5.12331 11.341 5.15154C11.2285 5.17978 11.1093 5.16214 11.0097 5.10252C10.9102 5.0429 10.8384 4.94618 10.8102 4.83362C10.5405 3.76193 9.92072 2.81097 9.04908 2.13165C8.17744 1.45232 7.1039 1.08354 5.99881 1.0838C4.89371 1.08407 3.82035 1.45338 2.94904 2.13313C2.07774 2.81288 1.45838 3.76413 1.18926 4.83596C1.15904 4.94617 1.08689 5.04018 0.988252 5.09788C0.889614 5.15559 0.772311 5.17241 0.661432 5.14474C0.550552 5.11708 0.454898 5.04713 0.394924 4.94986C0.334951 4.85258 0.31542 4.7357 0.340509 4.62421C0.656835 3.36272 1.38553 2.24307 2.41088 1.44304C3.43623 0.643009 4.69947 0.208453 6.00001 0.208374Z" fill="#86878B"/>
</svg>
