<svg width="16" height="14" viewBox="0 0 16 14" fill="none" xmlns="http://www.w3.org/2000/svg">
<path d="M10.0655 5.5C10.79 5.5 11.378 6.088 11.378 6.8125V10.3743C11.378 11.2696 11.0223 12.1282 10.3893 12.7613C9.75619 13.3943 8.89755 13.75 8.00225 13.75C7.10695 13.75 6.24831 13.3943 5.61523 12.7613C4.98216 12.1282 4.6265 11.2696 4.6265 10.3743V6.8125C4.6265 6.088 5.21375 5.5 5.939 5.5H10.0655ZM4.34825 5.5C4.08575 5.8165 3.917 6.2125 3.88325 6.6475L3.87575 6.8125V10.3743C3.87575 11.0095 4.01975 11.611 4.27625 12.148C3.83171 12.2669 3.36577 12.282 2.91447 12.1921C2.46317 12.1022 2.03859 11.9097 1.67356 11.6295C1.30853 11.3493 1.01284 10.9889 0.809347 10.5762C0.605853 10.1634 0.500009 9.70942 0.5 9.24925V6.8125C0.500012 6.48311 0.623878 6.16576 0.84701 5.92346C1.07014 5.68115 1.37622 5.5316 1.7045 5.5045L1.8125 5.5H4.34825ZM11.6562 5.5H14.1875C14.912 5.5 15.5 6.088 15.5 6.8125V9.25C15.5001 9.70987 15.3945 10.1636 15.1913 10.5762C14.9881 10.9887 14.6928 11.349 14.3282 11.6293C13.9636 11.9095 13.5394 12.1022 13.0884 12.1924C12.6375 12.2826 12.1719 12.2679 11.7275 12.1495C11.9525 11.6785 12.0905 11.1595 12.1213 10.6105L12.128 10.3743V6.8125C12.128 6.31375 11.9517 5.85625 11.6562 5.5ZM8 0.25C8.59674 0.25 9.16903 0.487053 9.59099 0.90901C10.0129 1.33097 10.25 1.90326 10.25 2.5C10.25 3.09674 10.0129 3.66903 9.59099 4.09099C9.16903 4.51295 8.59674 4.75 8 4.75C7.40326 4.75 6.83097 4.51295 6.40901 4.09099C5.98705 3.66903 5.75 3.09674 5.75 2.5C5.75 1.90326 5.98705 1.33097 6.40901 0.90901C6.83097 0.487053 7.40326 0.25 8 0.25ZM12.875 1C13.3723 1 13.8492 1.19754 14.2008 1.54917C14.5525 1.90081 14.75 2.37772 14.75 2.875C14.75 3.37228 14.5525 3.84919 14.2008 4.20083C13.8492 4.55246 13.3723 4.75 12.875 4.75C12.3777 4.75 11.9008 4.55246 11.5492 4.20083C11.1975 3.84919 11 3.37228 11 2.875C11 2.37772 11.1975 1.90081 11.5492 1.54917C11.9008 1.19754 12.3777 1 12.875 1ZM3.125 1C3.62228 1 4.09919 1.19754 4.45083 1.54917C4.80246 1.90081 5 2.37772 5 2.875C5 3.37228 4.80246 3.84919 4.45083 4.20083C4.09919 4.55246 3.62228 4.75 3.125 4.75C2.62772 4.75 2.15081 4.55246 1.79917 4.20083C1.44754 3.84919 1.25 3.37228 1.25 2.875C1.25 2.37772 1.44754 1.90081 1.79917 1.54917C2.15081 1.19754 2.62772 1 3.125 1Z" fill="white"/>
</svg>
