<svg width="19" height="21" viewBox="0 0 19 21" fill="none" xmlns="http://www.w3.org/2000/svg">
<path d="M6.54198 17.503H12.458C12.3398 18.202 11.9778 18.8365 11.4364 19.2941C10.8949 19.7517 10.2089 20.0028 9.49998 20.0028C8.79106 20.0028 8.10505 19.7517 7.56358 19.2941C7.02212 18.8365 6.66019 18.202 6.54198 17.503ZM9.49998 0.502991C11.4891 0.502991 13.3968 1.29317 14.8033 2.69969C16.2098 4.10621 17 6.01387 17 8.00299V12.003L18.418 15.163C18.4825 15.3075 18.5098 15.4659 18.4975 15.6236C18.4853 15.7814 18.4338 15.9336 18.3477 16.0665C18.2617 16.1993 18.1439 16.3085 18.0049 16.3842C17.8659 16.4599 17.7102 16.4997 17.552 16.5H1.45198C1.29351 16.5 1.13757 16.4603 0.998349 16.3846C0.859129 16.3089 0.741055 16.1996 0.654881 16.0666C0.568706 15.9336 0.517168 15.7812 0.50496 15.6232C0.492752 15.4652 0.520261 15.3066 0.584983 15.162L1.99998 12.002V7.98999L2.00498 7.73999C2.07339 5.79784 2.89298 3.95807 4.29108 2.60828C5.68918 1.25849 7.55663 0.503082 9.49998 0.502991Z" fill="#E8DC00"/>
</svg>
