<svg width="24" height="24" viewBox="0 0 24 24" fill="none" xmlns="http://www.w3.org/2000/svg">
<path d="M15.5 11.75C15.5 11.5511 15.421 11.3603 15.2803 11.2197C15.1397 11.079 14.9489 11 14.75 11C14.5511 11 14.3603 11.079 14.2197 11.2197C14.079 11.3603 14 11.5511 14 11.75V13.75C14 13.9489 14.079 14.1397 14.2197 14.2803C14.3603 14.421 14.5511 14.5 14.75 14.5C14.9489 14.5 15.1397 14.421 15.2803 14.2803C15.421 14.1397 15.5 13.9489 15.5 13.75V11.75ZM11.75 11C11.9489 11 12.1397 11.079 12.2803 11.2197C12.421 11.3603 12.5 11.5511 12.5 11.75V13.75C12.5 13.9489 12.421 14.1397 12.2803 14.2803C12.1397 14.421 11.9489 14.5 11.75 14.5C11.5511 14.5 11.3603 14.421 11.2197 14.2803C11.079 14.1397 11 13.9489 11 13.75V11.75C11 11.5511 11.079 11.3603 11.2197 11.2197C11.3603 11.079 11.5511 11 11.75 11ZM9.5 11.75C9.5 11.5511 9.42098 11.3603 9.28033 11.2197C9.13968 11.079 8.94891 11 8.75 11C8.55109 11 8.36032 11.079 8.21967 11.2197C8.07902 11.3603 8 11.5511 8 11.75V13.75C8 13.9489 8.07902 14.1397 8.21967 14.2803C8.36032 14.421 8.55109 14.5 8.75 14.5C8.94891 14.5 9.13968 14.421 9.28033 14.2803C9.42098 14.1397 9.5 13.9489 9.5 13.75V11.75ZM5.75 15.5C5.94891 15.5 6.13968 15.579 6.28033 15.7197C6.42098 15.8603 6.5 16.0511 6.5 16.25V18.75C6.5 18.9489 6.42098 19.1397 6.28033 19.2803C6.13968 19.421 5.94891 19.5 5.75 19.5C5.55109 19.5 5.36032 19.421 5.21967 19.2803C5.07902 19.1397 5 18.9489 5 18.75V16.25C5 16.0511 5.07902 15.8603 5.21967 15.7197C5.36032 15.579 5.55109 15.5 5.75 15.5ZM19 16.25C19 16.0511 18.921 15.8603 18.7803 15.7197C18.6397 15.579 18.4489 15.5 18.25 15.5C18.0511 15.5 17.8603 15.579 17.7197 15.7197C17.579 15.8603 17.5 16.0511 17.5 16.25V18.75C17.5 18.9489 17.579 19.1397 17.7197 19.2803C17.8603 19.421 18.0511 19.5 18.25 19.5C18.4489 19.5 18.6397 19.421 18.7803 19.2803C18.921 19.1397 19 18.9489 19 18.75V16.25Z" fill="#212121"/>
<path d="M11.75 2H15.5C15.6326 2 15.7598 2.05268 15.8536 2.14645C15.9473 2.24021 16 2.36739 16 2.5V4.5C16 4.63261 15.9473 4.75979 15.8536 4.85355C15.7598 4.94732 15.6326 5 15.5 5H12.5V6.018C14.2654 6.14442 15.9174 6.93493 17.1234 8.23038C18.3295 9.52583 19 11.2301 19 13H19.75C20.3467 13 20.919 13.2371 21.341 13.659C21.7629 14.081 22 14.6533 22 15.25V21.25C22 21.4489 21.921 21.6397 21.7803 21.7803C21.6397 21.921 21.4489 22 21.25 22H2.75C2.55109 22 2.36032 21.921 2.21967 21.7803C2.07902 21.6397 2 21.4489 2 21.25V15.25C2 14.6533 2.23705 14.081 2.65901 13.659C3.08097 13.2371 3.65326 13 4.25 13H5C4.99998 11.3165 5.60648 9.68944 6.7084 8.41673C7.81031 7.14402 9.33387 6.31091 11 6.07V2.75C11 2.55109 11.079 2.36032 11.2197 2.21967C11.3603 2.07902 11.5511 2 11.75 2ZM12 7.5C10.5413 7.5 9.14236 8.07946 8.11091 9.11091C7.07946 10.1424 6.5 11.5413 6.5 13V13.75C6.5 13.9489 6.42098 14.1397 6.28033 14.2803C6.13968 14.421 5.94891 14.5 5.75 14.5H4.25C4.05109 14.5 3.86032 14.579 3.71967 14.7197C3.57902 14.8603 3.5 15.0511 3.5 15.25V20.5H9.5V17.75C9.5 17.5511 9.57902 17.3603 9.71967 17.2197C9.86032 17.079 10.0511 17 10.25 17H13.75C13.9489 17 14.1397 17.079 14.2803 17.2197C14.421 17.3603 14.5 17.5511 14.5 17.75V20.5H20.5V15.25C20.5 15.0511 20.421 14.8603 20.2803 14.7197C20.1397 14.579 19.9489 14.5 19.75 14.5H18.25C18.0511 14.5 17.8603 14.421 17.7197 14.2803C17.579 14.1397 17.5 13.9489 17.5 13.75V13C17.5 11.5413 16.9205 10.1424 15.8891 9.11091C14.8576 8.07946 13.4587 7.5 12 7.5ZM13 18.5H11V20.5H13V18.5Z" fill="#212121"/>
</svg>
