<svg width="20" height="20" viewBox="0 0 20 20" fill="none" xmlns="http://www.w3.org/2000/svg">
<path d="M7.085 9.58334C7.30646 9.58334 7.51884 9.67131 7.67543 9.8279C7.83203 9.98449 7.92 10.1969 7.92 10.4183C7.92 10.6398 7.83203 10.8522 7.67543 11.0088C7.51884 11.1654 7.30646 11.2533 7.085 11.2533C6.86354 11.2533 6.65116 11.1654 6.49457 11.0088C6.33797 10.8522 6.25 10.6398 6.25 10.4183C6.25 10.1969 6.33797 9.98449 6.49457 9.8279C6.65116 9.67131 6.86354 9.58334 7.085 9.58334Z" fill="#38393A"/>
<path d="M10 3.62833V9.17083L16.2017 9.17L14.7667 7.73333C14.6608 7.62751 14.5965 7.48721 14.5853 7.33796C14.5742 7.1887 14.6169 7.04039 14.7059 6.92L14.7667 6.85C14.8725 6.74415 15.0128 6.67979 15.1621 6.66863C15.3113 6.65747 15.4596 6.70024 15.58 6.78917L15.65 6.85L18.1475 9.3475C18.2534 9.45332 18.3177 9.59362 18.3289 9.74288C18.3401 9.89213 18.2973 10.0404 18.2084 10.1608L18.1475 10.2308L15.6509 12.7342C15.5393 12.8452 15.39 12.9101 15.2327 12.9159C15.0754 12.9217 14.9217 12.8679 14.8024 12.7652C14.683 12.6626 14.6068 12.5187 14.5889 12.3624C14.571 12.206 14.6128 12.0486 14.7059 11.9217L14.7659 11.8508L16.1934 10.42L10.0009 10.4208L10 16.0417C10.0001 16.1329 9.98011 16.2231 9.94158 16.3059C9.90304 16.3886 9.84685 16.4619 9.77695 16.5206C9.70706 16.5793 9.62515 16.622 9.537 16.6456C9.44884 16.6693 9.35658 16.6733 9.26669 16.6575L2.18335 15.4058C2.03884 15.3804 1.90788 15.3049 1.81341 15.1926C1.71895 15.0803 1.66701 14.9384 1.66669 14.7917V4.79167C1.66669 4.64353 1.71931 4.50021 1.81516 4.38727C1.91101 4.27432 2.04386 4.1991 2.19002 4.175L9.27335 3.01167C9.36282 2.99692 9.45443 3.00181 9.54182 3.02601C9.62921 3.05021 9.71028 3.09313 9.77942 3.15181C9.84856 3.21048 9.9041 3.28349 9.94219 3.36578C9.98029 3.44807 10 3.53766 10 3.62833ZM8.75002 4.36417L2.91669 5.3225V14.2667L8.75002 15.2967V4.36417Z" fill="#38393A"/>
<path d="M10.8333 15.4175H11.4708L11.5558 15.4125C11.7057 15.3919 11.8431 15.3177 11.9424 15.2035C12.0417 15.0893 12.0962 14.943 12.0958 14.7917L12.09 11.25H10.8333V15.4175ZM10.835 8.33333L10.8333 7.27083V4.16666H11.4541C11.6051 4.16664 11.7509 4.22122 11.8647 4.32032C11.9785 4.41942 12.0526 4.55635 12.0733 4.70583L12.0791 4.79083L12.085 8.33333H10.835Z" fill="#38393A"/>
</svg>
