<svg width="18" height="16" viewBox="0 0 18 16" fill="none" xmlns="http://www.w3.org/2000/svg">
<path d="M11.2917 10.5C12.0967 10.5 12.75 11.1533 12.75 11.9583L12.7492 12.76C12.8467 14.585 11.49 15.5075 9.05585 15.5075C6.63085 15.5075 5.25002 14.5992 5.25002 12.7917V11.9583C5.25002 11.1533 5.90335 10.5 6.70835 10.5H11.2917ZM11.2917 11.75H6.70835C6.6531 11.75 6.60011 11.7719 6.56104 11.811C6.52197 11.8501 6.50002 11.9031 6.50002 11.9583V12.7917C6.50002 13.7717 7.23919 14.2575 9.05585 14.2575C10.8625 14.2575 11.5517 13.7875 11.5 12.7933V11.9583C11.5 11.9031 11.4781 11.8501 11.439 11.811C11.3999 11.7719 11.3469 11.75 11.2917 11.75ZM2.12502 6.33333H5.77169C5.66669 6.74128 5.63983 7.1654 5.69252 7.58333H2.12502C2.06977 7.58333 2.01678 7.60528 1.97771 7.64435C1.93864 7.68342 1.91669 7.73641 1.91669 7.79167V8.625C1.91669 9.605 2.65585 10.0908 4.47252 10.0908C4.85752 10.0908 5.19169 10.0692 5.47835 10.0267C5.00154 10.3287 4.65336 10.7965 4.50085 11.34L4.47252 11.3408C2.04752 11.3408 0.666687 10.4325 0.666687 8.625V7.79167C0.666687 6.98667 1.32002 6.33333 2.12502 6.33333ZM15.875 6.33333C16.68 6.33333 17.3334 6.98667 17.3334 7.79167L17.3325 8.59333C17.43 10.4183 16.0734 11.3408 13.6392 11.3408L13.4984 11.3392C13.3412 10.7809 12.9786 10.3027 12.4834 10.0008C12.8059 10.0608 13.1892 10.0908 13.6392 10.0908C15.4459 10.0908 16.135 9.62083 16.0834 8.62667V7.79167C16.0834 7.73641 16.0614 7.68342 16.0223 7.64435C15.9833 7.60528 15.9303 7.58333 15.875 7.58333H12.3084C12.3599 7.16532 12.3328 6.74136 12.2284 6.33333H15.875ZM9.00002 4.66667C9.32833 4.66667 9.65341 4.73133 9.95673 4.85697C10.26 4.9826 10.5356 5.16675 10.7678 5.3989C10.9999 5.63105 11.1841 5.90664 11.3097 6.20996C11.4354 6.51327 11.5 6.83836 11.5 7.16667C11.5 7.49497 11.4354 7.82006 11.3097 8.12337C11.1841 8.42669 10.9999 8.70229 10.7678 8.93443C10.5356 9.16658 10.26 9.35073 9.95673 9.47637C9.65341 9.602 9.32833 9.66667 9.00002 9.66667C8.33698 9.66667 7.70109 9.40327 7.23225 8.93443C6.76341 8.46559 6.50002 7.82971 6.50002 7.16667C6.50002 6.50362 6.76341 5.86774 7.23225 5.3989C7.70109 4.93006 8.33698 4.66667 9.00002 4.66667ZM9.00002 5.91667C8.83587 5.91667 8.67332 5.949 8.52167 6.01182C8.37001 6.07464 8.23221 6.16671 8.11614 6.28278C8.00006 6.39886 7.90799 6.53665 7.84517 6.68831C7.78235 6.83997 7.75002 7.00251 7.75002 7.16667C7.75002 7.33082 7.78235 7.49336 7.84517 7.64502C7.90799 7.79668 8.00006 7.93448 8.11614 8.05055C8.23221 8.16662 8.37001 8.2587 8.52167 8.32152C8.67332 8.38433 8.83587 8.41667 9.00002 8.41667C9.33154 8.41667 9.64948 8.28497 9.8839 8.05055C10.1183 7.81613 10.25 7.49819 10.25 7.16667C10.25 6.83515 10.1183 6.5172 9.8839 6.28278C9.64948 6.04836 9.33154 5.91667 9.00002 5.91667ZM4.41669 0.5C5.07973 0.5 5.71561 0.763392 6.18445 1.23223C6.6533 1.70107 6.91669 2.33696 6.91669 3C6.91669 3.66304 6.6533 4.29893 6.18445 4.76777C5.71561 5.23661 5.07973 5.5 4.41669 5.5C3.75365 5.5 3.11776 5.23661 2.64892 4.76777C2.18008 4.29893 1.91669 3.66304 1.91669 3C1.91669 2.33696 2.18008 1.70107 2.64892 1.23223C3.11776 0.763392 3.75365 0.5 4.41669 0.5ZM13.5834 0.5C14.2464 0.5 14.8823 0.763392 15.3511 1.23223C15.82 1.70107 16.0834 2.33696 16.0834 3C16.0834 3.66304 15.82 4.29893 15.3511 4.76777C14.8823 5.23661 14.2464 5.5 13.5834 5.5C12.9203 5.5 12.2844 5.23661 11.8156 4.76777C11.3467 4.29893 11.0834 3.66304 11.0834 3C11.0834 2.33696 11.3467 1.70107 11.8156 1.23223C12.2844 0.763392 12.9203 0.5 13.5834 0.5ZM4.41669 1.75C4.08517 1.75 3.76722 1.8817 3.5328 2.11612C3.29838 2.35054 3.16669 2.66848 3.16669 3C3.16669 3.33152 3.29838 3.64946 3.5328 3.88388C3.76722 4.1183 4.08517 4.25 4.41669 4.25C4.74821 4.25 5.06615 4.1183 5.30057 3.88388C5.53499 3.64946 5.66669 3.33152 5.66669 3C5.66669 2.66848 5.53499 2.35054 5.30057 2.11612C5.06615 1.8817 4.74821 1.75 4.41669 1.75ZM13.5834 1.75C13.2518 1.75 12.9339 1.8817 12.6995 2.11612C12.465 2.35054 12.3334 2.66848 12.3334 3C12.3334 3.33152 12.465 3.64946 12.6995 3.88388C12.9339 4.1183 13.2518 4.25 13.5834 4.25C13.9149 4.25 14.2328 4.1183 14.4672 3.88388C14.7017 3.64946 14.8334 3.33152 14.8334 3C14.8334 2.66848 14.7017 2.35054 14.4672 2.11612C14.2328 1.8817 13.9149 1.75 13.5834 1.75Z" fill="#38393A"/>
</svg>
