<svg width="16" height="16" viewBox="0 0 16 16" fill="none" xmlns="http://www.w3.org/2000/svg">
<path d="M5.29167 8.83333C5.78895 8.83333 6.26586 9.03088 6.61749 9.38251C6.96912 9.73414 7.16667 10.2111 7.16667 10.7083V13.625C7.16667 14.1223 6.96912 14.5992 6.61749 14.9508C6.26586 15.3025 5.78895 15.5 5.29167 15.5H2.375C1.87772 15.5 1.40081 15.3025 1.04917 14.9508C0.697544 14.5992 0.5 14.1223 0.5 13.625V10.7083C0.5 10.2111 0.697544 9.73414 1.04917 9.38251C1.40081 9.03088 1.87772 8.83333 2.375 8.83333H5.29167ZM13.625 8.83333C14.1223 8.83333 14.5992 9.03088 14.9508 9.38251C15.3025 9.73414 15.5 10.2111 15.5 10.7083V13.625C15.5 14.1223 15.3025 14.5992 14.9508 14.9508C14.5992 15.3025 14.1223 15.5 13.625 15.5H10.7083C10.2111 15.5 9.73414 15.3025 9.38251 14.9508C9.03088 14.5992 8.83333 14.1223 8.83333 13.625V10.7083C8.83333 10.2111 9.03088 9.73414 9.38251 9.38251C9.73414 9.03088 10.2111 8.83333 10.7083 8.83333H13.625ZM5.29167 0.5C5.78895 0.5 6.26586 0.697544 6.61749 1.04917C6.96912 1.40081 7.16667 1.87772 7.16667 2.375V5.29167C7.16667 5.78895 6.96912 6.26586 6.61749 6.61749C6.26586 6.96912 5.78895 7.16667 5.29167 7.16667H2.375C1.87772 7.16667 1.40081 6.96912 1.04917 6.61749C0.697544 6.26586 0.5 5.78895 0.5 5.29167V2.375C0.5 1.87772 0.697544 1.40081 1.04917 1.04917C1.40081 0.697544 1.87772 0.5 2.375 0.5H5.29167ZM13.625 0.5C14.1223 0.5 14.5992 0.697544 14.9508 1.04917C15.3025 1.40081 15.5 1.87772 15.5 2.375V5.29167C15.5 5.78895 15.3025 6.26586 14.9508 6.61749C14.5992 6.96912 14.1223 7.16667 13.625 7.16667H10.7083C10.2111 7.16667 9.73414 6.96912 9.38251 6.61749C9.03088 6.26586 8.83333 5.78895 8.83333 5.29167V2.375C8.83333 1.87772 9.03088 1.40081 9.38251 1.04917C9.73414 0.697544 10.2111 0.5 10.7083 0.5H13.625Z" fill="#38393A"/>
</svg>
