<svg width="15" height="15" viewBox="0 0 15 15" fill="none" xmlns="http://www.w3.org/2000/svg">
<path d="M0.333313 2.20834C0.333313 1.71106 0.530857 1.23415 0.882488 0.882518C1.23412 0.530888 1.71103 0.333344 2.20831 0.333344H9.29165C9.78893 0.333344 10.2658 0.530888 10.6175 0.882518C10.9691 1.23415 11.1666 1.71106 11.1666 2.20834V8.66668H14.0833V11.375C14.0833 12.0933 13.798 12.7822 13.2901 13.2901C12.7822 13.798 12.0933 14.0833 11.375 14.0833H3.04165C2.32335 14.0833 1.63448 13.798 1.12657 13.2901C0.618654 12.7822 0.333313 12.0933 0.333313 11.375V2.20834ZM11.1666 9.91668V12.8333H11.375C11.7618 12.8333 12.1327 12.6797 12.4062 12.4062C12.6797 12.1327 12.8333 11.7618 12.8333 11.375V9.91668H11.1666ZM9.91665 12.8333V2.20834C9.91665 2.04258 9.8508 1.88361 9.73359 1.7664C9.61638 1.64919 9.45741 1.58334 9.29165 1.58334H2.20831C2.04255 1.58334 1.88358 1.64919 1.76637 1.7664C1.64916 1.88361 1.58331 2.04258 1.58331 2.20834V11.375C1.58331 12.18 2.23665 12.8333 3.04165 12.8333H9.91665ZM2.83331 4.29168C2.83331 4.12592 2.89916 3.96695 3.01637 3.84974C3.13358 3.73253 3.29255 3.66668 3.45831 3.66668H8.04165C8.20741 3.66668 8.36638 3.73253 8.48359 3.84974C8.6008 3.96695 8.66665 4.12592 8.66665 4.29168C8.66665 4.45744 8.6008 4.61641 8.48359 4.73362C8.36638 4.85083 8.20741 4.91668 8.04165 4.91668H3.45831C3.29255 4.91668 3.13358 4.85083 3.01637 4.73362C2.89916 4.61641 2.83331 4.45744 2.83331 4.29168ZM2.83331 7.20834C2.83331 7.04258 2.89916 6.88361 3.01637 6.7664C3.13358 6.64919 3.29255 6.58334 3.45831 6.58334H8.04165C8.20741 6.58334 8.36638 6.64919 8.48359 6.7664C8.6008 6.88361 8.66665 7.04258 8.66665 7.20834C8.66665 7.3741 8.6008 7.53307 8.48359 7.65029C8.36638 7.7675 8.20741 7.83334 8.04165 7.83334H3.45831C3.29255 7.83334 3.13358 7.7675 3.01637 7.65029C2.89916 7.53307 2.83331 7.3741 2.83331 7.20834ZM2.83331 10.125C2.83331 9.95925 2.89916 9.80028 3.01637 9.68307C3.13358 9.56586 3.29255 9.50001 3.45831 9.50001H5.54165C5.70741 9.50001 5.86638 9.56586 5.98359 9.68307C6.1008 9.80028 6.16665 9.95925 6.16665 10.125C6.16665 10.2908 6.1008 10.4497 5.98359 10.567C5.86638 10.6842 5.70741 10.75 5.54165 10.75H3.45831C3.29255 10.75 3.13358 10.6842 3.01637 10.567C2.89916 10.4497 2.83331 10.2908 2.83331 10.125Z" fill="#38393A"/>
</svg>
