<svg width="16" height="18" viewBox="0 0 16 18" fill="none" xmlns="http://www.w3.org/2000/svg">
<path d="M2.37836 10.6667H11.535C11.6217 10.81 11.7275 10.9433 11.8517 11.0617L12.4517 11.63C12.4167 11.7625 12.3725 11.895 12.3184 12.0283C12.2134 11.9554 12.0886 11.9165 11.9609 11.9167H2.37752C2.21176 11.9167 2.05279 11.9825 1.93558 12.0997C1.81837 12.2169 1.75252 12.3759 1.75252 12.5417V13.2975C1.75252 13.8442 1.99169 14.3633 2.40586 14.7192C3.45419 15.6208 5.03336 16.0842 7.16669 16.0842C7.41002 16.0842 7.64586 16.0783 7.87502 16.0658C7.94252 16.4383 8.12002 16.7917 8.40002 17.0742L8.59002 17.2633C8.13919 17.3108 7.66502 17.3342 7.16669 17.3342C4.75836 17.3342 2.89336 16.7867 1.59086 15.6675C1.24962 15.3741 0.975791 15.0104 0.788097 14.6014C0.600404 14.1923 0.503276 13.7476 0.503357 13.2975V12.5417C0.503357 12.2954 0.551855 12.0516 0.646083 11.8241C0.74031 11.5967 0.878422 11.39 1.05253 11.2158C1.22664 11.0417 1.43334 10.9036 1.66083 10.8094C1.88831 10.7152 2.13213 10.6667 2.37836 10.6667ZM12.1759 9.20417L12.595 8.215C12.7917 7.75084 13.2625 7.49834 13.725 7.595L13.8234 7.62084L14.3484 7.78917C14.87 7.95584 15.2684 8.40167 15.3975 8.96167C15.7034 10.2933 15.3359 11.9142 14.2959 13.8242C13.2567 15.7325 12.1175 16.8792 10.8792 17.2658C10.6428 17.3389 10.3918 17.3511 10.1495 17.3011C9.90722 17.2511 9.6815 17.1407 9.49336 16.98L9.39002 16.8858L8.99169 16.4858C8.82407 16.3131 8.71578 16.0915 8.68252 15.8532C8.64926 15.6148 8.69275 15.372 8.80669 15.16L8.86502 15.0633L9.46669 14.18C9.70336 13.8325 10.1084 13.6675 10.4975 13.7508L10.6034 13.78L11.7134 14.15C12.1638 13.8062 12.5407 13.3755 12.8217 12.8833C13.0647 12.4747 13.2329 12.026 13.3184 11.5583L13.35 11.3342L12.4259 10.4567C12.2768 10.3114 12.1707 10.1277 12.1196 9.92592C12.0684 9.72413 12.074 9.51212 12.1359 9.31334L12.1759 9.20417ZM7.16669 0.670837C7.71386 0.670837 8.25568 0.778611 8.7612 0.988006C9.26673 1.1974 9.72606 1.50431 10.113 1.89123C10.4999 2.27814 10.8068 2.73747 11.0162 3.24299C11.2256 3.74851 11.3334 4.29033 11.3334 4.8375C11.3334 5.38468 11.2256 5.92649 11.0162 6.43202C10.8068 6.93754 10.4999 7.39687 10.113 7.78378C9.72606 8.17069 9.26673 8.47761 8.7612 8.687C8.25568 8.8964 7.71386 9.00417 7.16669 9.00417C6.06162 9.00417 5.00181 8.56518 4.22041 7.78378C3.43901 7.00238 3.00002 5.94257 3.00002 4.8375C3.00002 3.73244 3.43901 2.67263 4.22041 1.89123C5.00181 1.10982 6.06162 0.670837 7.16669 0.670837ZM7.16669 1.92084C6.78367 1.92084 6.4044 1.99628 6.05053 2.14286C5.69666 2.28943 5.37513 2.50427 5.1043 2.77511C4.83346 3.04595 4.61862 3.36748 4.47204 3.72134C4.32547 4.07521 4.25002 4.45448 4.25002 4.8375C4.25002 5.22053 4.32547 5.5998 4.47204 5.95366C4.61862 6.30753 4.83346 6.62906 5.1043 6.8999C5.37513 7.17074 5.69666 7.38558 6.05053 7.53215C6.4044 7.67873 6.78367 7.75417 7.16669 7.75417C7.94024 7.75417 8.6821 7.44688 9.22908 6.8999C9.77607 6.35292 10.0834 5.61105 10.0834 4.8375C10.0834 4.06396 9.77607 3.32209 9.22908 2.77511C8.6821 2.22813 7.94024 1.92084 7.16669 1.92084Z" fill="#38393A"/>
</svg>
