<svg width="31" height="27" viewBox="0 0 31 27" fill="none" xmlns="http://www.w3.org/2000/svg">
<path d="M1.16378 23.8097H29.8374C30.4797 23.8097 31 24.412 31 25.1548C31 25.8359 30.5628 26.3987 29.9954 26.4876L29.8374 26.5H1.16378C0.52177 26.5 0.00133254 25.8976 0.00133254 25.1548C0.00133254 24.4738 0.438646 23.911 1.00605 23.8219L1.16378 23.8097ZM1.16378 12.1573H29.8374C30.4797 12.1573 31 12.7596 31 13.5025C31 14.1834 30.5628 14.7462 29.9954 14.8354L29.8374 14.8476H1.16378C0.52177 14.8476 0.00133254 14.2453 0.00133254 13.5025C0.00133254 12.8215 0.438646 12.2587 1.00605 12.1695L1.16378 12.1573ZM1.16245 0.5H29.8363C30.4783 0.5 30.9987 1.10224 30.9987 1.84513C30.9987 2.52612 30.5613 3.08889 29.9941 3.17796L29.8363 3.19024H1.16245C0.520437 3.19024 0 2.58801 0 1.84513C0 1.16413 0.437314 0.60135 1.00472 0.512285L1.16245 0.5Z" fill="#FFF200"/>
</svg>
