<svg width="15" height="11" viewBox="0 0 15 11" fill="none" xmlns="http://www.w3.org/2000/svg">
<path d="M0.949706 9.24978H14.0538C14.3473 9.24978 14.5851 9.48764 14.5851 9.78103C14.5851 10.05 14.3853 10.2723 14.126 10.3074L14.0538 10.3123H0.949706C0.6563 10.3123 0.418456 10.0744 0.418456 9.78103C0.418456 9.51207 0.618312 9.2898 0.877619 9.25459L0.949706 9.24978H14.0538H0.949706ZM0.949706 4.64774H14.0538C14.3473 4.64774 14.5851 4.88559 14.5851 5.17899C14.5851 5.44794 14.3853 5.67021 14.126 5.70542L14.0538 5.71024H0.949706C0.6563 5.71024 0.418456 5.47238 0.418456 5.17899C0.418456 4.91003 0.618312 4.68776 0.877619 4.65255L0.949706 4.64774H14.0538H0.949706ZM0.949097 0.0437317H14.0533C14.3467 0.0437317 14.5845 0.281583 14.5845 0.574982C14.5845 0.843936 14.3846 1.0662 14.1254 1.10138L14.0533 1.10623H0.949097C0.655691 1.10623 0.417847 0.86838 0.417847 0.574982C0.417847 0.306028 0.617703 0.0837594 0.87701 0.0485836L0.949097 0.0437317H14.0533H0.949097Z" fill="#2C3131"/>
</svg>
