<svg width="18" height="14" viewBox="0 0 18 14" fill="none" xmlns="http://www.w3.org/2000/svg">
<path d="M9.00002 0.628333V6.17083L15.2017 6.17L13.7667 4.73333C13.6608 4.62751 13.5965 4.48721 13.5853 4.33796C13.5742 4.1887 13.6169 4.04039 13.7059 3.92L13.7667 3.85C13.8725 3.74415 14.0128 3.67979 14.1621 3.66863C14.3113 3.65747 14.4596 3.70024 14.58 3.78917L14.65 3.85L17.1475 6.3475C17.2534 6.45332 17.3177 6.59362 17.3289 6.74288C17.3401 6.89213 17.2973 7.04044 17.2084 7.16083L17.1475 7.23083L14.6509 9.73417C14.5393 9.84524 14.39 9.91014 14.2327 9.9159C14.0754 9.92166 13.9217 9.86785 13.8024 9.76523C13.683 9.66261 13.6068 9.51874 13.5889 9.36235C13.571 9.20597 13.6128 9.04859 13.7059 8.92167L13.7659 8.85083L15.1934 7.42L9.00085 7.42083L9.00002 13.0417C9.00006 13.1329 8.98011 13.2231 8.94158 13.3059C8.90304 13.3886 8.84685 13.4619 8.77695 13.5206C8.70706 13.5793 8.62515 13.622 8.537 13.6456C8.44884 13.6693 8.35658 13.6733 8.26669 13.6575L1.18335 12.4058C1.03884 12.3804 0.907877 12.3049 0.813414 12.1926C0.718951 12.0803 0.667009 11.9384 0.666687 11.7917V1.79167C0.666689 1.64353 0.719307 1.50021 0.815157 1.38727C0.911008 1.27432 1.04386 1.1991 1.19002 1.175L8.27335 0.011666C8.36282 -0.0030841 8.45443 0.00181049 8.54182 0.0260101C8.62921 0.0502097 8.71028 0.0931346 8.77942 0.151806C8.84856 0.210478 8.9041 0.283491 8.94219 0.365778C8.98029 0.448065 9.00002 0.537656 9.00002 0.628333ZM7.75002 1.36417L1.91669 2.3225V11.2667L7.75002 12.2967V1.36417Z" fill="#38393A"/>
</svg>
