<svg width="26" height="24" viewBox="0 0 26 24" fill="none" xmlns="http://www.w3.org/2000/svg">
<path d="M11.6666 8C11.2727 8 10.8826 8.0776 10.5186 8.22836C10.1546 8.37913 9.82388 8.6001 9.54531 8.87868C9.26673 9.15726 9.04575 9.48797 8.89499 9.85195C8.74422 10.2159 8.66663 10.606 8.66663 11C8.66663 11.394 8.74422 11.7841 8.89499 12.1481C9.04575 12.512 9.26673 12.8427 9.54531 13.1213C9.82388 13.3999 10.1546 13.6209 10.5186 13.7716C10.8826 13.9224 11.2727 14 11.6666 14C12.4623 14 13.2253 13.6839 13.7879 13.1213C14.3506 12.5587 14.6666 11.7956 14.6666 11C14.6666 10.2044 14.3506 9.44129 13.7879 8.87868C13.2253 8.31607 12.4623 8 11.6666 8ZM10.1666 11C10.1666 10.6022 10.3247 10.2206 10.606 9.93934C10.8873 9.65804 11.2688 9.5 11.6666 9.5C12.0645 9.5 12.446 9.65804 12.7273 9.93934C13.0086 10.2206 13.1666 10.6022 13.1666 11C13.1666 11.3978 13.0086 11.7794 12.7273 12.0607C12.446 12.342 12.0645 12.5 11.6666 12.5C11.2688 12.5 10.8873 12.342 10.606 12.0607C10.3247 11.7794 10.1666 11.3978 10.1666 11Z" fill="white"/>
<path d="M3.16663 7.25C3.16663 6.65326 3.40368 6.08097 3.82564 5.65901C4.24759 5.23705 4.81989 5 5.41663 5H17.9166C18.2121 5 18.5047 5.0582 18.7777 5.17127C19.0506 5.28434 19.2987 5.45008 19.5076 5.65901C19.7165 5.86794 19.8823 6.11598 19.9954 6.38896C20.1084 6.66194 20.1666 6.95453 20.1666 7.25V14.75C20.1666 15.0455 20.1084 15.3381 19.9954 15.611C19.8823 15.884 19.7165 16.1321 19.5076 16.341C19.2987 16.5499 19.0506 16.7157 18.7777 16.8287C18.5047 16.9418 18.2121 17 17.9166 17H5.41663C4.81989 17 4.24759 16.7629 3.82564 16.341C3.40368 15.919 3.16663 15.3467 3.16663 14.75V7.25ZM5.41663 6.5C5.21771 6.5 5.02695 6.57902 4.8863 6.71967C4.74564 6.86032 4.66663 7.05109 4.66663 7.25V8H5.41663C5.61554 8 5.8063 7.92098 5.94696 7.78033C6.08761 7.63968 6.16663 7.44891 6.16663 7.25V6.5H5.41663ZM4.66663 12.5H5.41663C6.01336 12.5 6.58566 12.7371 7.00762 13.159C7.42957 13.581 7.66663 14.1533 7.66663 14.75V15.5H15.6666V14.75C15.6666 14.1533 15.9037 13.581 16.3256 13.159C16.7476 12.7371 17.3199 12.5 17.9166 12.5H18.6666V9.5H17.9166C17.3199 9.5 16.7476 9.26295 16.3256 8.84099C15.9037 8.41903 15.6666 7.84674 15.6666 7.25V6.5H7.66663V7.25C7.66663 7.54547 7.60843 7.83805 7.49536 8.11104C7.38228 8.38402 7.21655 8.63206 7.00762 8.84099C6.79868 9.04992 6.55065 9.21566 6.27766 9.32873C6.00468 9.4418 5.7121 9.5 5.41663 9.5H4.66663V12.5ZM18.6666 8V7.25C18.6666 7.05109 18.5876 6.86032 18.447 6.71967C18.3063 6.57902 18.1155 6.5 17.9166 6.5H17.1666V7.25C17.1666 7.664 17.5026 8 17.9166 8H18.6666ZM18.6666 14H17.9166C17.7177 14 17.5269 14.079 17.3863 14.2197C17.2456 14.3603 17.1666 14.5511 17.1666 14.75V15.5H17.9166C18.1155 15.5 18.3063 15.421 18.447 15.2803C18.5876 15.1397 18.6666 14.9489 18.6666 14.75V14ZM4.66663 14.75C4.66663 15.164 5.00263 15.5 5.41663 15.5H6.16663V14.75C6.16663 14.5511 6.08761 14.3603 5.94696 14.2197C5.8063 14.079 5.61554 14 5.41663 14H4.66663V14.75Z" fill="white"/>
<path d="M5.56763 18.5C5.83093 18.9563 6.20977 19.3351 6.66603 19.5984C7.12228 19.8618 7.63984 20.0003 8.16663 20H18.4166C19.0404 20 19.6581 19.8771 20.2344 19.6384C20.8107 19.3997 21.3343 19.0498 21.7754 18.6088C22.2165 18.1677 22.5663 17.644 22.8051 17.0677C23.0438 16.4915 23.1666 15.8738 23.1666 15.25V10C23.1666 8.89 22.5636 7.92 21.6666 7.401V15.25C21.6666 16.112 21.3242 16.9386 20.7147 17.5481C20.1052 18.1576 19.2786 18.5 18.4166 18.5H5.56763Z" fill="white"/>
</svg>
