<svg width="14" height="14" viewBox="0 0 14 14" fill="none" xmlns="http://www.w3.org/2000/svg">
<path d="M9.16668 8.00001H6.50001C6.3674 8.00001 6.24023 7.94733 6.14646 7.85356C6.05269 7.7598 6.00001 7.63262 6.00001 7.50001V3.50001C6.00001 3.3674 6.05269 3.24023 6.14646 3.14646C6.24023 3.05269 6.3674 3.00001 6.50001 3.00001C6.63262 3.00001 6.7598 3.05269 6.85356 3.14646C6.94733 3.24023 7.00001 3.3674 7.00001 3.50001V7.00001H9.16668C9.29928 7.00001 9.42646 7.05269 9.52023 7.14646C9.614 7.24023 9.66668 7.3674 9.66668 7.50001C9.66668 7.63262 9.614 7.7598 9.52023 7.85356C9.42646 7.94733 9.29928 8.00001 9.16668 8.00001ZM7.00001 0.333344C3.31868 0.333344 0.333344 3.31868 0.333344 7.00001C0.333344 10.6813 3.31868 13.6667 7.00001 13.6667C10.6813 13.6667 13.6667 10.6813 13.6667 7.00001C13.6667 3.31868 10.6813 0.333344 7.00001 0.333344Z" fill="#38393A"/>
</svg>
